<svg width="60" height="60" viewBox="0 0 60 60" fill="none" xmlns="http://www.w3.org/2000/svg">
<g clip-path="url(#clip0_87_261)">
<path d="M44.9581 46.7478H53.3615C54.4758 46.7478 55.5447 46.3049 56.3325 45.5171C57.1203 44.7293 57.5632 43.6604 57.5632 42.5461V23.6386C57.5632 22.5242 57.1203 21.4555 56.3325 20.6675C55.5447 19.8796 54.4758 19.4369 53.3615 19.4369H7.14308C6.02871 19.4369 4.96002 19.8796 4.17205 20.6675C3.38408 21.4555 2.94141 22.5242 2.94141 23.6386V42.5461C2.94141 43.6604 3.38408 44.7293 4.17205 45.5171C4.96002 46.3049 6.02871 46.7478 7.14308 46.7478H15.5464" stroke="#444444" stroke-width="4.62184" stroke-linecap="round" stroke-linejoin="round"/>
<path d="M15.5464 40.4453V55.1512C15.5464 55.7083 15.7677 56.2428 16.1617 56.6369C16.5557 57.0306 17.09 57.252 17.6472 57.252H42.8573C43.4144 57.252 43.9489 57.0306 44.343 56.6369C44.7367 56.2428 44.9581 55.7083 44.9581 55.1512V40.4453H15.5464Z" stroke="#444444" stroke-width="4.62184" stroke-linecap="round" stroke-linejoin="round"/>
<path d="M44.9581 19.4369V4.73106C44.9581 4.17388 44.7367 3.63952 44.343 3.24554C43.9489 2.85155 43.4144 2.63022 42.8573 2.63022H17.6472C17.09 2.63022 16.5557 2.85155 16.1617 3.24554C15.7677 3.63952 15.5464 4.17388 15.5464 4.73106V19.4369" stroke="#444444" stroke-width="4.62184" stroke-linecap="round" stroke-linejoin="round"/>
<path d="M47.0586 29.9411H42.8569" stroke="#444444" stroke-width="4.62184" stroke-linecap="round" stroke-linejoin="round"/>
</g>
<defs>
<clipPath id="clip0_87_261">
<rect width="58.8234" height="58.8234" fill="white" transform="translate(0.840332 0.529388)"/>
</clipPath>
</defs>
</svg>
