<svg width="75" height="75" viewBox="0 0 75 75" fill="none" xmlns="http://www.w3.org/2000/svg">
<g clip-path="url(#clip0_6_26)">
<path d="M56.25 58.9284H66.9643C68.385 58.9284 69.7479 58.3637 70.7523 57.3593C71.7568 56.3548 72.3214 54.9919 72.3214 53.5712V29.4641C72.3214 28.0433 71.7568 26.6807 70.7523 25.676C69.7479 24.6714 68.385 24.1069 66.9643 24.1069H8.03572C6.6149 24.1069 5.25231 24.6714 4.24764 25.676C3.24299 26.6807 2.67857 28.0433 2.67857 29.4641V53.5712C2.67857 54.9919 3.24299 56.3548 4.24764 57.3593C5.25231 58.3637 6.6149 58.9284 8.03572 58.9284H18.75" stroke="#19323C" stroke-width="5.5" stroke-linecap="round" stroke-linejoin="round"/>
<path d="M18.75 50.8928V69.6428C18.75 70.3532 19.0322 71.0346 19.5346 71.5371C20.0368 72.0391 20.7182 72.3214 21.4286 72.3214H53.5714C54.2818 72.3214 54.9632 72.0391 55.4657 71.5371C55.9677 71.0346 56.25 70.3532 56.25 69.6428V50.8928H18.75Z" stroke="#19323C" stroke-width="5.5" stroke-linecap="round" stroke-linejoin="round"/>
<path d="M56.25 24.107V5.35704C56.25 4.64664 55.9677 3.96533 55.4657 3.463C54.9632 2.96067 54.2818 2.67847 53.5714 2.67847H21.4286C20.7182 2.67847 20.0368 2.96067 19.5346 3.463C19.0322 3.96533 18.75 4.64664 18.75 5.35704V24.107" stroke="#19323C" stroke-width="5.5" stroke-linecap="round" stroke-linejoin="round"/>
<path d="M58.9286 37.5H53.5714" stroke="#19323C" stroke-width="5.5" stroke-linecap="round" stroke-linejoin="round"/>
</g>
<defs>
<clipPath id="clip0_6_26">
<rect width="75" height="75" fill="white"/>
</clipPath>
</defs>
</svg>
