<svg width="95" height="95" viewBox="0 0 95 95" fill="none" xmlns="http://www.w3.org/2000/svg">
<path d="M33.6458 49.4793L61.3542 49.4792" stroke="#19323C" stroke-width="4.125" stroke-linecap="round"/>
<path d="M33.6458 61.3542L49.4792 61.3542" stroke="#19323C" stroke-width="4.125" stroke-linecap="round"/>
<path d="M21.7708 23.7542C21.7708 20.2889 21.7708 18.5563 22.4452 17.2327C23.0384 16.0684 23.985 15.1219 25.1493 14.5286C26.4728 13.8542 28.2055 13.8542 31.6708 13.8542H49.3368C50.8502 13.8542 51.6069 13.8542 52.319 14.0252C52.9503 14.1768 53.5539 14.4268 54.1075 14.766C54.7319 15.1487 55.267 15.6838 56.3371 16.7539L70.3295 30.7463C71.3997 31.8164 71.9347 32.3515 72.3174 32.9759C72.6566 33.5295 72.9066 34.1331 73.0582 34.7644C73.2292 35.4765 73.2292 36.2332 73.2292 37.7466V71.2459C73.2292 74.7112 73.2292 76.4439 72.5548 77.7675C71.9616 78.9317 71.015 79.8783 69.8507 80.4715C68.5272 81.1459 66.7945 81.1459 63.3292 81.1459H31.6708C28.2055 81.1459 26.4728 81.1459 25.1493 80.4715C23.985 79.8783 23.0384 78.9317 22.4452 77.7675C21.7708 76.4439 21.7708 74.7112 21.7708 71.2459V23.7542Z" stroke="#19323C" stroke-width="4.125"/>
<path d="M49.4792 13.8542V27.7042C49.4792 31.1696 49.4792 32.9022 50.1536 34.2258C50.7468 35.3901 51.6934 36.3366 52.8576 36.9299C54.1812 37.6042 55.9138 37.6042 59.3792 37.6042H73.2292" stroke="#19323C" stroke-width="4.125"/>
</svg>
