<svg width="95" height="95" viewBox="0 0 95 95" fill="none" xmlns="http://www.w3.org/2000/svg">
<path d="M33.646 49.4791L61.3543 49.4791" stroke="#FAEBD7" stroke-width="4.125" stroke-linecap="round"/>
<path d="M33.646 61.3541L49.4793 61.3541" stroke="#FAEBD7" stroke-width="4.125" stroke-linecap="round"/>
<path d="M21.771 23.7541C21.771 20.2888 21.771 18.5561 22.4454 17.2326C23.0386 16.0683 23.9852 15.1217 25.1494 14.5285C26.473 13.8541 28.2057 13.8541 31.671 13.8541H49.337C50.8504 13.8541 51.6071 13.8541 52.3192 14.0251C52.9505 14.1767 53.5541 14.4267 54.1077 14.7659C54.7321 15.1486 55.2672 15.6836 56.3373 16.7538L70.3297 30.7461C71.3998 31.8163 71.9349 32.3514 72.3175 32.9758C72.6568 33.5294 72.9068 34.1329 73.0584 34.7643C73.2293 35.4764 73.2293 36.2331 73.2293 37.7465V71.2458C73.2293 74.7111 73.2293 76.4438 72.5549 77.7674C71.9617 78.9316 71.0151 79.8782 69.8509 80.4714C68.5273 81.1458 66.7947 81.1458 63.3293 81.1458H31.671C28.2057 81.1458 26.473 81.1458 25.1494 80.4714C23.9852 79.8782 23.0386 78.9316 22.4454 77.7674C21.771 76.4438 21.771 74.7111 21.771 71.2458V23.7541Z" stroke="#FAEBD7" stroke-width="4.125"/>
<path d="M49.479 13.8541V27.7041C49.479 31.1695 49.479 32.9021 50.1534 34.2257C50.7466 35.3899 51.6932 36.3365 52.8574 36.9297C54.181 37.6041 55.9137 37.6041 59.379 37.6041H73.229" stroke="#FAEBD7" stroke-width="4.125"/>
</svg>
